<mxfile host="app.diagrams.net" modified="2023-05-13T08:10:27.894Z" agent="Mozilla/5.0 (Windows NT 10.0; Win64; x64) AppleWebKit/537.36 (KHTML, like Gecko) Chrome/113.0.0.0 Safari/537.36 Edg/113.0.1774.35" etag="Q2Akm9WpGNoZTtMBc5IM" version="21.3.0" type="device">
  <diagram name="第 1 页" id="zSejkKII_xprmhpTX31j">
    <mxGraphModel dx="880" dy="585" grid="1" gridSize="10" guides="1" tooltips="1" connect="1" arrows="1" fold="1" page="1" pageScale="1" pageWidth="827" pageHeight="1169" math="0" shadow="0">
      <root>
        <mxCell id="0" />
        <mxCell id="1" parent="0" />
        <mxCell id="Lg65l-tqom5eAL7-4m70-10" value="Kubernetes on EC2 Instance" style="rounded=1;arcSize=20;strokeColor=none;fillColor=#DBDBDB;gradientColor=none;fontFamily=Helvetica;labelPosition=center;verticalLabelPosition=top;align=center;verticalAlign=bottom;" vertex="1" parent="1">
          <mxGeometry x="220" y="105.25" width="530" height="304.75" as="geometry" />
        </mxCell>
        <mxCell id="Lg65l-tqom5eAL7-4m70-9" value="HTTP Request&lt;br&gt;&amp;amp; Response" style="edgeStyle=orthogonalEdgeStyle;rounded=0;orthogonalLoop=1;jettySize=auto;html=1;entryX=0;entryY=0.5;entryDx=0;entryDy=0;entryPerimeter=0;labelPosition=center;verticalLabelPosition=bottom;align=center;verticalAlign=top;startArrow=classic;startFill=1;labelBackgroundColor=none;" edge="1" parent="1" source="Lg65l-tqom5eAL7-4m70-4" target="Lg65l-tqom5eAL7-4m70-6">
          <mxGeometry x="-0.0769" y="20" relative="1" as="geometry">
            <mxPoint as="offset" />
          </mxGeometry>
        </mxCell>
        <mxCell id="Lg65l-tqom5eAL7-4m70-4" value="User" style="shape=actor;whiteSpace=wrap;html=1;labelPosition=center;verticalLabelPosition=bottom;align=center;verticalAlign=top;" vertex="1" parent="1">
          <mxGeometry x="90" y="230" width="40" height="60" as="geometry" />
        </mxCell>
        <mxCell id="Lg65l-tqom5eAL7-4m70-13" value="OpenFaaS&lt;br&gt;GateWay" style="edgeStyle=orthogonalEdgeStyle;rounded=0;orthogonalLoop=1;jettySize=auto;html=1;exitX=1;exitY=0.5;exitDx=0;exitDy=0;exitPerimeter=0;labelBackgroundColor=none;startArrow=classic;startFill=1;" edge="1" parent="1" source="Lg65l-tqom5eAL7-4m70-6" target="Lg65l-tqom5eAL7-4m70-11">
          <mxGeometry relative="1" as="geometry" />
        </mxCell>
        <mxCell id="Lg65l-tqom5eAL7-4m70-6" value="Frontend&lt;br&gt;(NodeJS+Vue)" style="outlineConnect=0;dashed=0;verticalLabelPosition=bottom;verticalAlign=top;align=center;html=1;shape=mxgraph.aws3.android;fillColor=#8CC64F;gradientColor=none;" vertex="1" parent="1">
          <mxGeometry x="260" y="229" width="50" height="61" as="geometry" />
        </mxCell>
        <mxCell id="Lg65l-tqom5eAL7-4m70-7" value="MySQL RDBMS&lt;br&gt;(for Task and User data)" style="outlineConnect=0;dashed=0;verticalLabelPosition=middle;verticalAlign=middle;align=left;html=1;shape=mxgraph.aws3.mysql_db_instance_2;fillColor=#2E73B8;gradientColor=none;labelPosition=right;" vertex="1" parent="1">
          <mxGeometry x="521" y="130" width="60" height="63" as="geometry" />
        </mxCell>
        <mxCell id="Lg65l-tqom5eAL7-4m70-8" value="TF Serving&lt;br&gt;(for Image Recognition)" style="sketch=0;html=1;verticalAlign=middle;labelPosition=right;verticalLabelPosition=middle;align=left;spacingTop=-6;fontSize=11;fontStyle=0;fontColor=default;shape=image;aspect=fixed;imageAspect=0;image=data:image/svg+xml,PHN2ZyB4bWxucz0iaHR0cDovL3d3dy53My5vcmcvMjAwMC9zdmciIHhtbG5zOnY9Imh0dHBzOi8vdmVjdGEuaW8vbmFubyIgd2lkdGg9IjM0Ni4zMDMyMTgzOTM3OTEiIGhlaWdodD0iMzc5LjE5NjAwODk5NjY3Mjk2IiB2aWV3Qm94PSIwIDAgOTEuNjI1OTk5NDUwNjgzNiAxMDAuMzI5MDAyMzgwMzcxMSI+JiN4YTs8c3R5bGUgdHlwZT0idGV4dC9jc3MiPiYjeGE7CS5zdDB7ZmlsbDojNDI4NWY0O30mI3hhOzwvc3R5bGU+JiN4YTsJPHBhdGggY2xhc3M9InN0MCIgZD0iTTQ3LjcyOSAxMDAuMzI5VjBsNDMuODk3IDI1LjAyNXYyMS41NjJsLTI2LjgtMTUuMzQxdjExLjk1bDEzLjIxMyA2Ljg3NnYxOS4xNzdsLTEzLjIxMy03LjcxN3YyOS4wNDZ6TTAgMjUuMDI1TDQzLjQ2MyAwdjEwMC4zMjlsLTE2Ljc1Ni05Ljc1MnYtNTkuMzNMMCA0Ni41ODd6Ii8+JiN4YTs8L3N2Zz4=;fontFamily=Helvetica;" vertex="1" parent="1">
          <mxGeometry x="521" y="330" width="47.05" height="52" as="geometry" />
        </mxCell>
        <mxCell id="Lg65l-tqom5eAL7-4m70-17" style="edgeStyle=orthogonalEdgeStyle;rounded=0;orthogonalLoop=1;jettySize=auto;html=1;entryX=0;entryY=0.5;entryDx=0;entryDy=0;entryPerimeter=0;" edge="1" parent="1" source="Lg65l-tqom5eAL7-4m70-11" target="Lg65l-tqom5eAL7-4m70-7">
          <mxGeometry relative="1" as="geometry" />
        </mxCell>
        <mxCell id="Lg65l-tqom5eAL7-4m70-18" style="edgeStyle=orthogonalEdgeStyle;rounded=0;orthogonalLoop=1;jettySize=auto;html=1;entryX=0;entryY=0.5;entryDx=0;entryDy=0;" edge="1" parent="1" source="Lg65l-tqom5eAL7-4m70-11" target="Lg65l-tqom5eAL7-4m70-8">
          <mxGeometry relative="1" as="geometry" />
        </mxCell>
        <mxCell id="Lg65l-tqom5eAL7-4m70-19" style="edgeStyle=orthogonalEdgeStyle;rounded=0;orthogonalLoop=1;jettySize=auto;html=1;startArrow=classic;startFill=1;" edge="1" parent="1" source="Lg65l-tqom5eAL7-4m70-11" target="Lg65l-tqom5eAL7-4m70-14">
          <mxGeometry relative="1" as="geometry" />
        </mxCell>
        <mxCell id="Lg65l-tqom5eAL7-4m70-11" value="OpenFaaS&lt;br&gt;(Python-Flask)" style="sketch=0;outlineConnect=0;fontColor=#232F3E;gradientColor=none;fillColor=#232F3D;strokeColor=none;dashed=0;verticalLabelPosition=bottom;verticalAlign=top;align=center;html=1;fontSize=12;fontStyle=0;aspect=fixed;pointerEvents=1;shape=mxgraph.aws4.servers;" vertex="1" parent="1">
          <mxGeometry x="400" y="232" width="56" height="56" as="geometry" />
        </mxCell>
        <mxCell id="Lg65l-tqom5eAL7-4m70-14" value="MinIO Bucket&lt;br&gt;(for Image Storage)" style="outlineConnect=0;dashed=0;verticalLabelPosition=middle;verticalAlign=middle;align=left;html=1;shape=mxgraph.aws3.bucket;fillColor=#E05243;gradientColor=none;labelPosition=right;" vertex="1" parent="1">
          <mxGeometry x="559" y="228.5" width="60" height="61.5" as="geometry" />
        </mxCell>
        <mxCell id="Lg65l-tqom5eAL7-4m70-21" value="Kubernetes on EC2 Instance" style="rounded=1;arcSize=20;strokeColor=none;fillColor=#DBDBDB;gradientColor=none;fontFamily=Helvetica;labelPosition=center;verticalLabelPosition=top;align=center;verticalAlign=bottom;" vertex="1" parent="1">
          <mxGeometry x="220" y="105.25" width="530" height="304.75" as="geometry" />
        </mxCell>
        <mxCell id="Lg65l-tqom5eAL7-4m70-22" value="HTTP Request&lt;br&gt;&amp;amp; Response" style="edgeStyle=orthogonalEdgeStyle;rounded=0;orthogonalLoop=1;jettySize=auto;html=1;entryX=0;entryY=0.5;entryDx=0;entryDy=0;entryPerimeter=0;labelPosition=center;verticalLabelPosition=bottom;align=center;verticalAlign=top;startArrow=classic;startFill=1;labelBackgroundColor=none;" edge="1" parent="1" source="Lg65l-tqom5eAL7-4m70-23" target="Lg65l-tqom5eAL7-4m70-25">
          <mxGeometry x="-0.0769" y="20" relative="1" as="geometry">
            <mxPoint as="offset" />
          </mxGeometry>
        </mxCell>
        <mxCell id="Lg65l-tqom5eAL7-4m70-23" value="User" style="shape=actor;whiteSpace=wrap;html=1;labelPosition=center;verticalLabelPosition=bottom;align=center;verticalAlign=top;" vertex="1" parent="1">
          <mxGeometry x="90" y="230" width="40" height="60" as="geometry" />
        </mxCell>
        <mxCell id="Lg65l-tqom5eAL7-4m70-24" value="OpenFaaS&lt;br&gt;GateWay" style="edgeStyle=orthogonalEdgeStyle;rounded=0;orthogonalLoop=1;jettySize=auto;html=1;exitX=1;exitY=0.5;exitDx=0;exitDy=0;exitPerimeter=0;labelBackgroundColor=none;startArrow=classic;startFill=1;" edge="1" parent="1" source="Lg65l-tqom5eAL7-4m70-25" target="Lg65l-tqom5eAL7-4m70-31">
          <mxGeometry relative="1" as="geometry" />
        </mxCell>
        <mxCell id="Lg65l-tqom5eAL7-4m70-25" value="Frontend&lt;br&gt;(NodeJS+Vue)" style="outlineConnect=0;dashed=0;verticalLabelPosition=bottom;verticalAlign=top;align=center;html=1;shape=mxgraph.aws3.android;fillColor=#8CC64F;gradientColor=none;" vertex="1" parent="1">
          <mxGeometry x="260" y="229" width="50" height="61" as="geometry" />
        </mxCell>
        <mxCell id="Lg65l-tqom5eAL7-4m70-26" value="MySQL RDBMS&lt;br&gt;(for Task and User data)" style="outlineConnect=0;dashed=0;verticalLabelPosition=middle;verticalAlign=middle;align=left;html=1;shape=mxgraph.aws3.mysql_db_instance_2;fillColor=#2E73B8;gradientColor=none;labelPosition=right;" vertex="1" parent="1">
          <mxGeometry x="521" y="130" width="60" height="63" as="geometry" />
        </mxCell>
        <mxCell id="Lg65l-tqom5eAL7-4m70-27" value="TF Serving&lt;br&gt;(for Image Recognition)" style="sketch=0;html=1;verticalAlign=middle;labelPosition=right;verticalLabelPosition=middle;align=left;spacingTop=-6;fontSize=11;fontStyle=0;fontColor=default;shape=image;aspect=fixed;imageAspect=0;image=data:image/svg+xml,PHN2ZyB4bWxucz0iaHR0cDovL3d3dy53My5vcmcvMjAwMC9zdmciIHhtbG5zOnY9Imh0dHBzOi8vdmVjdGEuaW8vbmFubyIgd2lkdGg9IjM0Ni4zMDMyMTgzOTM3OTEiIGhlaWdodD0iMzc5LjE5NjAwODk5NjY3Mjk2IiB2aWV3Qm94PSIwIDAgOTEuNjI1OTk5NDUwNjgzNiAxMDAuMzI5MDAyMzgwMzcxMSI+JiN4YTs8c3R5bGUgdHlwZT0idGV4dC9jc3MiPiYjeGE7CS5zdDB7ZmlsbDojNDI4NWY0O30mI3hhOzwvc3R5bGU+JiN4YTsJPHBhdGggY2xhc3M9InN0MCIgZD0iTTQ3LjcyOSAxMDAuMzI5VjBsNDMuODk3IDI1LjAyNXYyMS41NjJsLTI2LjgtMTUuMzQxdjExLjk1bDEzLjIxMyA2Ljg3NnYxOS4xNzdsLTEzLjIxMy03LjcxN3YyOS4wNDZ6TTAgMjUuMDI1TDQzLjQ2MyAwdjEwMC4zMjlsLTE2Ljc1Ni05Ljc1MnYtNTkuMzNMMCA0Ni41ODd6Ii8+JiN4YTs8L3N2Zz4=;fontFamily=Helvetica;" vertex="1" parent="1">
          <mxGeometry x="521" y="330" width="47.05" height="52" as="geometry" />
        </mxCell>
        <mxCell id="Lg65l-tqom5eAL7-4m70-28" style="edgeStyle=orthogonalEdgeStyle;rounded=0;orthogonalLoop=1;jettySize=auto;html=1;entryX=0;entryY=0.5;entryDx=0;entryDy=0;entryPerimeter=0;" edge="1" parent="1" source="Lg65l-tqom5eAL7-4m70-31" target="Lg65l-tqom5eAL7-4m70-26">
          <mxGeometry relative="1" as="geometry" />
        </mxCell>
        <mxCell id="Lg65l-tqom5eAL7-4m70-29" style="edgeStyle=orthogonalEdgeStyle;rounded=0;orthogonalLoop=1;jettySize=auto;html=1;entryX=0;entryY=0.5;entryDx=0;entryDy=0;" edge="1" parent="1" source="Lg65l-tqom5eAL7-4m70-31" target="Lg65l-tqom5eAL7-4m70-27">
          <mxGeometry relative="1" as="geometry" />
        </mxCell>
        <mxCell id="Lg65l-tqom5eAL7-4m70-30" style="edgeStyle=orthogonalEdgeStyle;rounded=0;orthogonalLoop=1;jettySize=auto;html=1;startArrow=classic;startFill=1;" edge="1" parent="1" source="Lg65l-tqom5eAL7-4m70-31" target="Lg65l-tqom5eAL7-4m70-32">
          <mxGeometry relative="1" as="geometry" />
        </mxCell>
        <mxCell id="Lg65l-tqom5eAL7-4m70-31" value="OpenFaaS&lt;br&gt;(Python-Flask)" style="sketch=0;outlineConnect=0;fontColor=#232F3E;gradientColor=none;fillColor=#232F3D;strokeColor=none;dashed=0;verticalLabelPosition=bottom;verticalAlign=top;align=center;html=1;fontSize=12;fontStyle=0;aspect=fixed;pointerEvents=1;shape=mxgraph.aws4.servers;" vertex="1" parent="1">
          <mxGeometry x="400" y="232" width="56" height="56" as="geometry" />
        </mxCell>
        <mxCell id="Lg65l-tqom5eAL7-4m70-32" value="MinIO Bucket&lt;br&gt;(for Image Storage)" style="outlineConnect=0;dashed=0;verticalLabelPosition=middle;verticalAlign=middle;align=left;html=1;shape=mxgraph.aws3.bucket;fillColor=#E05243;gradientColor=none;labelPosition=right;" vertex="1" parent="1">
          <mxGeometry x="559" y="228.5" width="60" height="61.5" as="geometry" />
        </mxCell>
      </root>
    </mxGraphModel>
  </diagram>
</mxfile>
